<?xml version="1.0" standalone="no"?>
<!DOCTYPE svg PUBLIC "-//W3C//DTD SVG 20010904//EN"
 "http://www.w3.org/TR/2001/REC-SVG-20010904/DTD/svg10.dtd">
<svg version="1.0" xmlns="http://www.w3.org/2000/svg"
 width="640.000000pt" height="640.000000pt" viewBox="0 0 640.000000 640.000000"
 preserveAspectRatio="xMidYMid meet">
<metadata>
Created by potrace 1.14, written by Peter Selinger 2001-2017
</metadata>
<g transform="translate(0.000000,640.000000) scale(0.100000,-0.100000)"
fill="#000000" stroke="none">
<path d="M1140 5421 c-160 -44 -290 -150 -359 -294 -49 -103 -62 -163 -57
-274 5 -102 32 -191 82 -271 34 -52 149 -172 167 -172 5 0 21 -9 36 -19 15
-11 58 -30 96 -42 89 -30 263 -32 335 -5 25 9 50 18 55 19 30 7 126 71 170
113 123 120 178 259 171 431 -11 236 -160 429 -391 508 -74 25 -224 28 -305 6z"/>
<path d="M3055 5424 c-33 -8 -73 -22 -90 -31 -16 -9 -31 -16 -33 -14 -2 1 -28
-12 -59 -29 -89 -50 -192 -161 -241 -259 -23 -46 -42 -91 -42 -100 0 -10 -3
-21 -7 -24 -16 -17 -24 -228 -10 -292 24 -116 77 -219 155 -303 76 -81 135
-123 224 -160 92 -38 146 -47 273 -46 166 3 305 63 427 185 58 59 124 153 129
184 0 6 6 19 12 30 6 11 12 25 14 30 30 113 38 255 18 340 -4 17 -8 37 -10 45
-2 8 -4 16 -5 18 -2 1 -3 5 -5 10 -1 4 -7 20 -13 35 -7 16 -12 30 -12 33 0 31
-170 234 -196 234 -8 0 -14 4 -14 9 0 5 -30 24 -67 44 -59 30 -89 42 -173 64
-41 11 -221 9 -275 -3z"/>
<path d="M4980 5421 c-227 -62 -387 -247 -416 -481 -7 -64 -7 -60 1 -125 14
-120 68 -234 149 -318 49 -51 135 -117 153 -117 5 0 25 -9 46 -20 20 -11 37
-18 37 -15 0 2 12 0 28 -6 38 -15 198 -20 252 -9 273 60 458 297 446 575 -4
94 -18 148 -62 235 -64 125 -184 226 -329 275 -74 25 -224 28 -305 6z"/>
<path d="M1155 4002 c-1 -1 -45 -5 -96 -7 -52 -2 -101 -6 -109 -8 -8 -2 -37
-7 -65 -12 -27 -4 -56 -12 -62 -17 -7 -6 -13 -8 -13 -5 0 9 -127 -40 -195 -74
-100 -52 -189 -116 -268 -192 -88 -86 -161 -176 -184 -227 -4 -8 -9 -17 -12
-20 -19 -16 -118 -250 -106 -250 3 0 1 -8 -4 -19 -6 -10 -13 -31 -15 -47 -3
-16 -9 -47 -13 -69 -14 -72 -7 -324 10 -400 10 -38 19 -79 21 -90 3 -19 9 -34
42 -112 8 -17 14 -34 14 -38 0 -13 104 -185 112 -185 4 0 8 -6 8 -14 0 -19
217 -236 235 -236 7 0 15 -4 17 -8 4 -11 115 -82 128 -82 6 0 10 -5 10 -10 0
-6 6 -9 13 -8 8 2 12 -14 12 -55 0 -31 2 -57 6 -57 3 0 2 -25 -1 -55 -3 -31
-4 -57 -2 -59 2 -3 5 -31 7 -63 4 -77 9 -93 41 -144 71 -115 163 -159 329
-159 22 0 49 0 60 0 81 0 108 1 116 6 5 3 9 2 9 -3 0 -4 25 -8 55 -8 30 0 55
2 55 5 0 3 29 5 65 5 36 0 65 -2 65 -5 0 -3 28 -4 62 -2 35 1 81 2 103 2 22 1
68 10 101 21 118 38 217 172 216 294 0 6 0 35 -1 65 0 30 -1 71 -1 91 -1 59
-6 74 -44 124 -103 135 -188 320 -241 525 -1 3 -5 25 -9 50 -5 25 -10 54 -12
65 -4 18 -16 205 -16 230 2 62 15 177 28 249 11 60 49 189 70 241 14 33 26 65
28 70 5 24 86 166 130 230 53 77 76 103 158 190 l67 71 -21 19 c-25 21 -210
115 -239 120 -10 2 -23 6 -27 9 -5 3 -19 7 -33 11 -13 3 -53 12 -89 20 -63 15
-193 24 -408 28 -57 1 -105 1 -107 -1z m-514 -784 c1 -40 0 -77 -1 -83 -1 -5
-1 -39 0 -75 1 -36 2 -72 1 -80 0 -8 0 -44 0 -80 1 -36 1 -72 0 -80 0 -8 0
-44 0 -80 1 -36 1 -72 0 -80 0 -8 0 -54 0 -102 0 -49 -4 -88 -8 -88 -10 0 -63
74 -63 87 0 5 -5 14 -12 21 -11 11 -26 47 -54 132 -9 25 -17 90 -19 146 -4
111 11 191 51 282 27 61 84 152 97 152 4 0 8 -33 8 -72z"/>
<path d="M5028 4005 c-2 -1 -55 -5 -118 -9 -118 -6 -123 -6 -200 -25 -25 -7
-56 -14 -70 -17 -40 -8 -150 -54 -210 -87 -114 -63 -119 -69 -70 -110 17 -14
30 -28 30 -30 0 -2 22 -28 50 -57 153 -162 287 -434 336 -685 18 -94 26 -378
12 -460 -32 -184 -74 -314 -150 -464 -32 -64 -62 -118 -66 -121 -5 -3 -18 -21
-29 -40 -12 -19 -31 -45 -43 -58 -15 -15 -20 -32 -17 -48 2 -13 1 -24 -2 -24
-11 0 -2 -198 13 -266 7 -33 55 -105 92 -140 65 -61 141 -84 269 -84 22 0 49
0 60 0 81 0 108 1 116 6 5 3 9 2 9 -3 0 -4 25 -8 55 -8 30 0 55 4 55 8 0 5 4
6 8 3 7 -4 69 -7 112 -5 20 1 147 0 184 -1 59 -1 151 39 202 88 76 73 109 157
104 262 -1 25 -2 52 -1 60 3 35 -1 104 -5 112 -3 4 -1 8 4 8 5 0 7 13 4 29 -3
25 1 31 40 51 144 74 314 225 396 350 23 36 45 70 49 75 11 14 58 112 78 160
21 51 51 165 62 230 10 60 10 296 0 345 -4 19 -9 49 -12 65 -9 50 -55 186 -83
245 -100 213 -290 406 -507 519 -59 31 -212 85 -270 96 -16 3 -41 8 -55 11
-57 10 -359 19 -368 10 -2 -2 -16 0 -32 4 -16 4 -30 7 -32 5z m778 -762 c39
-60 76 -133 68 -133 -4 0 -2 -6 4 -13 52 -63 48 -371 -6 -454 -8 -13 -12 -23
-8 -23 12 0 -83 -149 -96 -150 -6 0 -10 127 -9 255 0 11 0 40 0 65 0 59 0 62
1 85 1 11 1 50 1 88 0 37 0 73 0 80 0 6 0 21 -1 32 -1 11 -1 40 0 65 1 25 1
50 0 55 -5 23 1 95 8 95 4 0 21 -21 38 -47z"/>
<path d="M2996 3842 c-3 -3 -28 -6 -54 -8 -135 -7 -309 -59 -439 -130 -182
-101 -356 -276 -452 -458 -17 -32 -31 -65 -31 -72 0 -7 -4 -14 -8 -16 -10 -4
-58 -149 -66 -198 -3 -19 -9 -57 -14 -83 -9 -47 -8 -288 2 -337 3 -14 8 -38
11 -55 10 -51 56 -187 83 -245 46 -97 132 -220 211 -298 97 -98 127 -122 234
-185 l88 -52 -3 -42 c-2 -24 -1 -43 3 -43 3 0 3 -22 -1 -50 -4 -27 -2 -50 2
-50 5 0 6 -4 3 -10 -8 -12 -7 -243 1 -290 8 -50 41 -115 78 -153 68 -73 135
-102 246 -106 35 -1 68 -5 72 -7 3 -2 9 -1 12 4 2 4 34 5 70 2 36 -3 72 -3 80
0 8 3 55 3 103 0 48 -3 116 -3 151 0 34 3 62 3 62 0 0 -3 27 -5 60 -5 33 0 60
2 60 5 0 3 12 7 27 8 44 4 125 51 170 101 60 65 84 140 83 262 -1 52 -1 103
-1 114 0 11 0 40 0 65 0 25 0 52 0 60 2 39 -1 105 -4 109 -8 7 16 41 26 36 5
-4 9 -2 9 3 0 5 12 14 28 21 114 52 300 220 385 349 98 146 167 320 182 457 2
17 7 50 10 75 9 59 9 50 1 165 -4 55 -14 132 -22 170 -8 39 -16 75 -17 80 -3
10 -20 56 -43 115 -77 190 -241 388 -414 501 -180 117 -332 168 -550 185 -47
3 -96 5 -110 4 -14 -1 -32 -1 -40 -1 -8 0 -35 0 -60 0 -25 0 -52 0 -60 0 -73
2 -93 2 -97 -2 -2 -3 -17 -1 -33 3 -16 4 -31 6 -34 2z m891 -761 c24 -24 81
-154 96 -218 19 -82 15 -241 -8 -318 -19 -67 -83 -195 -96 -195 -5 0 -9 -5 -9
-11 0 -6 -6 -17 -14 -25 -12 -12 -15 -6 -18 42 -1 31 0 60 3 65 3 5 2 32 -1
60 -4 27 -4 52 0 54 3 2 3 29 0 59 -3 31 -3 56 0 56 3 0 3 27 0 61 -3 33 -3
62 0 64 3 2 3 29 0 59 -3 31 -2 56 3 56 4 0 6 4 3 9 -5 7 -10 192 -7 236 1 5
9 -2 18 -15 9 -14 23 -31 30 -39z m-1330 37 c1 -7 2 -26 2 -43 1 -16 1 -49 -1
-73 -2 -23 -1 -42 2 -42 3 0 5 -29 5 -65 0 -36 -4 -65 -8 -65 -5 0 -6 -4 -2
-9 4 -8 7 -198 4 -261 -1 -8 -1 -33 0 -55 0 -22 1 -62 1 -89 1 -27 1 -52 2
-55 0 -3 0 -19 -1 -35 l-1 -29 -31 39 c-42 53 -95 167 -113 241 -17 75 -15
238 4 303 8 25 14 47 15 50 0 3 6 15 13 28 7 12 10 22 7 22 -3 0 7 19 21 43
65 106 80 122 81 95z"/>
</g>
</svg>
